<?xml version="1.0" encoding="UTF-8" standalone="no"?>
<!-- Created with Inkscape (http://www.inkscape.org/) -->

<svg
   xmlns:osb="http://www.openswatchbook.org/uri/2009/osb"
   xmlns:dc="http://purl.org/dc/elements/1.1/"
   xmlns:cc="http://creativecommons.org/ns#"
   xmlns:rdf="http://www.w3.org/1999/02/22-rdf-syntax-ns#"
   xmlns:svg="http://www.w3.org/2000/svg"
   xmlns="http://www.w3.org/2000/svg"
   xmlns:xlink="http://www.w3.org/1999/xlink"
   xmlns:sodipodi="http://sodipodi.sourceforge.net/DTD/sodipodi-0.dtd"
   xmlns:inkscape="http://www.inkscape.org/namespaces/inkscape"
   width="297mm"
   height="210mm"
   viewBox="0 0 297 210"
   version="1.1"
   id="svg8"
   inkscape:version="0.92.1 r15371"
   sodipodi:docname="drawing.svg">
  <title
     id="title6324">logo</title>
  <defs
     id="defs2">
    <linearGradient
       id="linearGradient6107"
       inkscape:collect="always"
       osb:paint="gradient">
      <stop
         id="stop6111"
         offset="0"
         style="stop-color:#2e8cce;stop-opacity:1;" />
      <stop
         id="stop6113"
         offset="1"
         style="stop-color:#000000;stop-opacity:0;" />
    </linearGradient>
    <linearGradient
       id="linearGradient6089"
       osb:paint="solid">
      <stop
         style="stop-color:#000000;stop-opacity:1;"
         offset="0"
         id="stop6087" />
    </linearGradient>
    <linearGradient
       inkscape:collect="always"
       xlink:href="#linearGradient6107"
       id="linearGradient6314"
       x1="75.729134"
       y1="533.70117"
       x2="481.49963"
       y2="533.70117"
       gradientUnits="userSpaceOnUse" />
    <linearGradient
       inkscape:collect="always"
       xlink:href="#linearGradient6107"
       id="linearGradient6322"
       x1="125.70464"
       y1="228.86239"
       x2="212.6314"
       y2="228.86239"
       gradientUnits="userSpaceOnUse" />
  </defs>
  <sodipodi:namedview
     id="base"
     pagecolor="#ffffff"
     bordercolor="#666666"
     borderopacity="1.0"
     inkscape:pageopacity="0.0"
     inkscape:pageshadow="2"
     inkscape:zoom="0.5543368"
     inkscape:cx="240.33815"
     inkscape:cy="538.30971"
     inkscape:document-units="mm"
     inkscape:current-layer="layer1"
     showgrid="true"
     inkscape:window-width="1920"
     inkscape:window-height="1001"
     inkscape:window-x="-9"
     inkscape:window-y="-9"
     inkscape:window-maximized="1">
    <inkscape:grid
       type="xygrid"
       id="grid10" />
  </sodipodi:namedview>
  <metadata
     id="metadata5">
    <rdf:RDF>
      <cc:Work
         rdf:about="">
        <dc:format>image/svg+xml</dc:format>
        <dc:type
           rdf:resource="http://purl.org/dc/dcmitype/StillImage" />
        <dc:title>logo</dc:title>
      </cc:Work>
    </rdf:RDF>
  </metadata>
  <g
     inkscape:label="Layer 1"
     inkscape:groupmode="layer"
     id="layer1"
     transform="translate(0,-87)">
    <path
       id="path3682"
       transform="matrix(0.26458333,0,0,0.26458333,0,87)"
       style="fill:url(#linearGradient6314);stroke:#ff5e00;stroke-width:8.54173239;stroke-linecap:butt;stroke-linejoin:miter;stroke-opacity:1;stroke-miterlimit:4;stroke-dasharray:none;fill-opacity:1;opacity:1"
       d="m 80,313.70117 v 62.69336 c 2.16667,-0.17922 4.334582,-0.30375 6.484375,-0.24219 6.474788,0.1852 12.728553,1.70285 18.939455,3.41993 2.08596,0.28422 4.16083,0.66741 6.25781,0.85351 3.97296,0.35263 7.98873,0.049 11.95117,0.60742 3.13933,0.28611 6.37332,0.14755 9.40039,1.02735 5.57197,1.61956 6.19521,2.75218 9.14453,5.9082 -0.73535,0.004 -2.84024,-0.3571 -2.20507,0.0137 1.59582,0.93113 9.78985,0.50048 10.57422,0.57422 2.11843,0.19918 4.22774,0.60482 6.26562,1.2168 2.37974,0.71463 4.6197,1.83073 6.92969,2.74609 8.40174,5.17837 5.54073,3.27004 13.27343,8.56055 1.50658,1.03075 2.86426,2.31086 4.50196,3.11719 1.44851,0.71319 3.1093,0.87301 4.64062,1.38476 2.94174,0.98306 5.70207,2.47671 8.73633,3.20703 5.77219,1.37692 7.25844,2.00684 13.23633,2.32032 2.56151,0.13416 5.13038,-0.0344 7.69531,-0.0117 1.40655,0.0129 2.81189,0.0484 4.2168,0.0879 l 79.41601,-29.78125 c -1.07428,-3.22737 -2.08271,-6.55588 -2.8125,-9.88086 -0.0602,-0.2744 0.13514,-0.57784 0.0391,-0.8418 -3.80943,-10.46562 -0.15464,1.28961 -2.08203,-5.07226 -1.72337,-3.84961 -5.2868,-6.50831 -7.46094,-10.13477 -6.10953,-10.19078 -0.69477,-1.34426 -1.29688,-4.37695 -0.0865,-0.43567 -0.29549,-0.83705 -0.44336,-1.25586 -1.56533,-2.99539 1.81893,3.36234 -3.30859,-4.51563 -0.80871,-1.24252 -1.44737,-2.58988 -2.08203,-3.92969 -0.34182,-0.72158 -0.65179,-1.46666 -0.8418,-2.24218 -0.0227,-0.093 0.33815,0.0563 0.28516,-0.0234 -0.53264,-0.79861 -1.19886,-1.49872 -1.79883,-2.24805 -0.1761,-0.26418 -0.29666,-0.46074 -0.37891,-0.60937 -0.77406,-0.75089 -1.77784,-1.74563 -3.33203,-3.33203 -4.17838,-4.26501 5.97737,2.76422 -5.02929,-4.53125 -0.72736,-0.66866 -3.41194,-2.94545 -5.73047,-5.09961 -0.28074,-0.13516 -0.56268,-0.27355 -0.86524,-0.44141 -2.30577,-0.93127 -4.69503,-1.67835 -6.91797,-2.79297 -3.67627,-1.84339 -7.13967,-4.12424 -10.61914,-6.375 z m 188.36719,0 c 0.8875,2.52602 1.39704,5.21835 1.14453,7.25781 0.52423,0.82654 1.07643,1.49337 1.64062,1.92383 1.27021,-3.06068 2.54195,-6.12098 3.8125,-9.18164 z m 11.1875,0 c 0.50994,0.46953 1.0248,0.93359 1.53711,1.40039 3.27507,1.42322 4.98761,4.50273 7.26953,6.99805 0.0709,0.0775 0.20243,-0.21596 0.27929,-0.14453 1.93093,1.79875 2.42341,2.65717 3.81836,4.62109 2.98121,2.61831 3.0814,6.9923 5.4043,9.99219 0.26185,0.33827 0.6278,0.58033 0.94141,0.87109 0.61026,0.91386 1.21981,1.82834 1.83008,2.74219 0.57171,1.21304 1.26571,2.3751 1.71484,3.63867 0.48999,1.37851 0.65914,2.85376 1.08984,4.25196 0.42138,1.36792 0.31802,-0.17492 1.19532,0.68164 1.14144,1.11469 2.15298,2.36476 3.07617,3.66601 0.9855,1.38905 1.75563,2.91903 2.63281,4.37891 0.5752,1.45255 1.10987,2.92116 1.72461,4.35742 0.24692,0.57687 0.65488,1.08187 0.85742,1.67578 1.3683,4.01219 1.96413,8.27336 3.41797,12.24024 L 480,313.70117 Z M 85.146484,394.14258 c -1.702828,4.8e-4 -3.424243,0.1394 -5.146484,0.31054 v 95.35352 c 7.656348,2.01316 15.505171,3.13573 23.25586,4.71094 2.60677,0.52977 5.17317,1.27082 7.79883,1.69726 5.37903,0.8736 10.84563,1.07391 16.26953,1.60157 18.64827,3.71584 37.56888,2.18381 56.4043,1.72656 0.46959,-0.003 13.52544,-0.14413 15.13867,-0.004 13.228,1.14331 1.80908,0.75794 11.90625,2.16406 13.70023,1.90795 -4.81169,-1.74377 9.9082,1.37305 1.7283,0.85943 3.48044,1.66983 5.18359,2.57813 1.16302,0.62022 2.23246,1.40817 3.40821,2.0039 0.58904,0.29859 1.28413,0.35442 1.86523,0.66797 2.26004,1.21981 4.24634,2.96072 6.61914,3.94336 0.27716,0.1149 -0.46332,-0.38016 -0.69531,-0.57031 5.22197,1.25393 9.87931,4.03592 14.73438,6.42383 1.7776,1.21326 3.64568,2.30588 5.33398,3.64062 1.7912,1.41612 3.36513,3.0884 5.08203,4.59375 4.46019,3.9106 8.92297,7.65059 13.06836,11.9043 2.38715,5.11638 3.99169,4.29536 7.31055,7.66601 2.90477,2.95011 4.18904,4.92251 6.49804,8.10547 5.7973,15.33536 -0.12709,-1.27434 3.19532,10.32813 0.18353,0.64093 1.56405,2.3988 1.74414,2.79297 1.048,2.29391 1.80925,4.71037 2.83203,7.01562 1.37928,0.78487 2.11159,2.15612 2.53125,3.77344 L 360,553.70117 l -200,-120 24.79492,-9.29883 c -1.69073,-0.68101 -3.36919,-1.39441 -5.0957,-1.97461 -1.0614,-0.35678 -2.22781,-0.41564 -3.23242,-0.91015 -7.78918,-3.83422 -14.79267,-9.10321 -22.17383,-13.63086 -2.7589,-0.88025 -3.93894,-1.52018 -6.75195,-1.54297 -0.61106,-0.004 -1.19558,0.31672 -1.80664,0.31445 -1.53526,-0.008 -3.06564,-0.19168 -4.59376,-0.33984 -1.16346,-0.11263 -2.40459,0.0192 -3.47851,-0.44336 -2.51121,-1.07932 -4.73302,-2.73398 -7.09961,-4.10156 -1.11407,-1.13027 -2.0321,-2.49435 -3.3418,-3.39063 -0.32288,-0.2211 -0.73781,0.27572 -1.125,0.33203 -1.14061,0.16593 -2.29074,0.33921 -3.44336,0.33204 -6.52048,-0.0404 -13.10318,-0.77555 -19.55664,-1.58399 -5.948396,-1.28277 -11.799176,-3.32209 -17.949216,-3.32031 z M 80,508.375 v 56.62695 c 4.94742,1.68947 9.721366,3.93045 14.373047,6.46485 5.057847,2.66173 -1.105433,-0.32073 8.759763,2.47461 7.74917,2.19567 14.42163,7.11678 22.53321,8.18359 2.74632,0.94148 5.55047,1.7268 8.23828,2.82422 12.73058,5.19795 24.2028,13.30264 35.22851,21.35742 1.9176,1.25567 3.95655,2.34515 5.75391,3.76758 5.01286,3.96726 7.08177,9.39505 12.12109,12.82422 l 95.59571,-38.23828 c -0.6685,-1.1777 -1.55375,-2.23068 -2.31055,-3.35743 -0.4714,-1.11549 -1.00739,-2.20504 -1.41406,-3.3457 -0.17658,-0.49531 -0.10415,-1.0672 -0.32813,-1.54297 -1.07667,-2.28703 -5.77564,-9.26633 -4.0918,-11.83203 -1.10096,-1.53861 -1.94944,-3.27864 -3.24414,-4.6582 -2.89436,-3.0841 -7.26343,-4.84849 -8.88086,-9.10352 -5.74167,-5.9526 -12.1864,-11.21691 -18.5039,-16.51562 -2.29305,-1.13035 -4.22539,-2.0463 -6.43946,-3.26172 -0.48539,-0.26646 -1.57997,-0.31971 -1.42578,-0.85156 0.0175,-0.0603 0.065,-0.0983 0.125,-0.125 -2.71583,-0.47834 -2.14608,0.51494 -2.82422,-0.73438 -4.26934,-1.32805 -3.98388,-0.88943 -7.39257,-3.08594 -0.5626,-0.36245 -0.99243,-0.92131 -1.58399,-1.23437 -1.33476,-0.70636 -7.31308,-2.42743 -7.68359,-4.36524 -5.8156,-1.59326 1.15923,0.16022 -9.73438,-1.33398 -2.76527,-0.37928 -5.37404,-1.49153 -8.16797,-1.73633 -1.5366,-0.13455 -14.14516,-0.003 -14.5371,0 -19.55844,0.47214 -39.2208,1.99016 -58.5879,-1.80664 -2.79633,-0.27212 -15.32531,-1.44005 -18.36328,-1.92969 -2.46746,-0.39772 -4.87691,-1.10192 -7.326168,-1.59961 C 93.272034,510.89576 86.587363,509.85615 80,508.375 Z m 0,76.08789 v 169.23828 h 107.62305 c 3.07972,-1.06744 6.10411,-2.07533 10.38086,-3.32422 5.5434,-1.61877 11.14805,-3.0185 16.70507,-4.58984 6.78519,-3.37066 12.86501,-7.96809 19.52344,-11.55078 5.28009,-2.84107 26.73637,-12.87968 32.33203,-15.54492 18.91818,-9.01085 11.62916,-5.42078 30.32227,-15.20118 5.23209,-2.93238 10.48041,-5.83601 15.69531,-8.79882 1.32264,-0.75146 2.63111,-1.52675 3.94531,-2.29297 L 259.79883,671.125 c -3.80085,0.09 -7.58318,-0.014 -11.19336,-1.08203 -10.42363,-3.0838 -13.64561,-6.31015 -22.63867,-11.60352 l -13.27735,-4.98047 c -1.41427,0.0195 -2.8482,0.28727 -4.22265,-0.0176 -6.37051,-1.41502 -11.56311,-4.78133 -17.01368,-7.94532 L 160,633.70117 l 8.68555,-3.47461 c -0.80566,-0.92283 -1.59314,-1.86462 -2.34375,-2.84179 -0.77495,-1.00887 -1.27401,-2.22323 -2.11719,-3.17579 -0.25878,-0.29215 -0.74549,-0.25035 -1.08594,-0.4414 -1.25374,-0.70386 -2.45816,-1.49067 -3.6875,-2.23633 -10.47096,-7.59636 -21.24149,-15.44047 -33.33984,-20.31055 -2.00103,-0.80549 -4.10689,-1.32329 -6.16016,-1.98437 -8.23124,-1.00997 -15.04201,-6.21452 -22.912108,-8.31445 -5.416471,-1.44527 -4.264986,-0.78012 -3.15039,-0.28516 -0.883183,-0.36051 -2.58004,-1.03738 -6.515625,-2.54102 C 84.917872,586.925 82.476858,585.65175 80,584.46289 Z m 258.47656,116.16602 c -0.21666,0.11803 -0.43586,0.23121 -0.65234,0.34961 -5.54205,3.03087 -10.93076,6.33238 -16.42383,9.45117 -5.36688,3.04713 -10.76937,6.03175 -16.1543,9.04687 -19.19257,10.02656 -11.81688,6.40152 -30.96484,15.52149 -2.77068,1.31966 -27.64091,13.01937 -30.70117,14.66797 -2.30107,1.23961 -4.51279,2.63586 -6.72266,4.03515 H 480 Z" />
    <flowRoot
       xml:space="preserve"
       id="flowRoot3684"
       style="font-style:normal;font-weight:normal;font-size:40px;line-height:1.25;font-family:sans-serif;letter-spacing:0px;word-spacing:0px;fill:#000000;fill-opacity:1;stroke:none"
       transform="matrix(0.26458333,0,0,0.26458333,0,87)"><flowRegion
         id="flowRegion3686"><rect
           id="rect3688"
           width="840"
           height="200"
           x="160"
           y="73.700806" /></flowRegion><flowPara
         id="flowPara3690" /></flowRoot>    <path
       id="path3738"
       style="fill:url(#linearGradient6322);stroke:#f37808;stroke-width:2.25999999;stroke-linecap:butt;stroke-linejoin:miter;stroke-miterlimit:4;stroke-dasharray:none;stroke-opacity:1;fill-opacity:1"
       d="m 169.16797,171.21905 c -10.12284,0 -17.82388,3.32944 -23.68434,8.39432 0.57422,0.19363 1.14891,0.3867 1.72857,0.56327 1.04738,0.31907 8.03969,2.27894 8.74159,2.4598 4.75795,1.22602 5.43002,1.27669 10.29911,2.21589 1.67894,0.21322 3.3534,0.46566 5.0369,0.63924 1.58845,0.16376 3.19106,0.18099 4.77646,0.37207 2.5528,0.30767 7.40255,1.224 9.86761,1.86862 1.56609,0.40953 3.08278,0.99051 4.63796,1.4397 1.33973,0.38695 2.69642,0.71218 4.04471,1.06815 2.12515,0.52702 4.29822,0.70882 6.46679,0.92656 -6.20645,-11.09424 -16.10927,-19.94762 -31.91536,-19.94762 z m -27.48359,12.19202 c -6.547,7.52525 -10.2061,17.35816 -12.25249,26.00358 1.30691,-0.14295 2.61368,-0.28541 3.91863,-0.43718 2.18018,-0.25356 4.35302,-0.56787 6.53293,-0.82372 2.49984,-0.2934 5.00404,-0.54901 7.506,-0.82373 7.53943,-0.44001 8.81227,-0.58798 16.45585,-0.73122 2.90955,-0.0545 5.82189,0.0406 8.73021,-0.0599 8.92761,-0.30858 17.82437,-1.32339 26.61698,-2.88148 0.99362,-0.15509 3.9576,-0.60263 6.88485,-1.0728 -0.71942,-2.12368 -1.53572,-4.2436 -2.45876,-6.32468 -0.31626,-0.0412 -0.63478,-0.0723 -0.95033,-0.11317 -3.09548,-0.40083 -6.23161,-0.51564 -9.27282,-1.29294 -1.41605,-0.37551 -2.84078,-0.71846 -4.2478,-1.12655 -1.41773,-0.41118 -2.79652,-0.95484 -4.22403,-1.33067 -1.56532,-0.41212 -3.1559,-0.72482 -4.74545,-1.03043 -6.01844,-1.1571 -3.10728,-0.47131 -9.49451,-1.1405 -1.78393,-0.1869 -3.55765,-0.45853 -5.33663,-0.68781 -5.08438,-0.98506 -5.71059,-1.02427 -10.67221,-2.30322 -0.88697,-0.22863 -7.80104,-2.17288 -8.94829,-2.52232 -1.10409,-0.33631 -2.18735,-0.73711 -3.28973,-1.07901 -0.24973,-0.0775 -0.50158,-0.14827 -0.7524,-0.22221 z m 65.812,23.77788 c -2.9174,0.47758 -5.91833,0.92674 -7.56698,1.18442 -8.93943,1.57969 -17.98419,2.61069 -27.05985,2.93006 -2.99462,0.10539 -5.99318,0.0118 -8.98911,0.0687 -7.55364,0.14331 -8.76791,0.28682 -16.21245,0.72295 -2.42052,0.26785 -4.84304,0.5183 -7.26157,0.80357 -2.15501,0.25419 -4.3031,0.56377 -6.45852,0.81442 -1.84555,0.21462 -3.69456,0.41336 -5.54282,0.61856 -0.43227,2.3773 -0.74213,4.57619 -0.96893,6.53552 8.54284,0.006 17.08567,0.0375 25.62841,0.0398 17.348,-0.0127 34.69585,-0.0128 52.04385,-0.0104 1.75772,0.10088 3.51669,0.18412 5.27461,0.28267 -0.59232,-4.19043 -1.50026,-9.01999 -2.88664,-13.99036 z m -80.50258,18.45107 c -0.15915,2.37698 -0.15916,3.78736 -0.15916,3.78736 v 28.47992 c 2.75054,-0.88987 5.48076,-1.83142 8.17572,-2.87321 5.96847,-10.89287 16.29401,-20.31504 34.15761,-20.31504 7.04237,0 12.91195,1.46564 17.80615,3.90726 2.46226,-0.5301 -0.66499,0.13032 5.10873,-0.92501 2.80877,-0.5134 6.82304,-1.38632 9.58081,-1.76734 3.26716,-0.4514 6.57469,-0.57295 9.83764,-1.06401 v -0.1509 c 0,0 -0.007,-3.45824 -0.5395,-8.72866 -1.95059,-0.11787 -3.90298,-0.20707 -5.85391,-0.32091 -17.34821,-0.002 -34.69667,-0.002 -52.04488,0.0103 -8.68957,-0.002 -17.37951,-0.0341 -26.06921,-0.0398 z m 84.5075,14.0503 c -3.10559,0.42204 -6.24504,0.56382 -9.3493,0.99167 -2.20197,0.30351 -6.87593,1.28739 -9.16016,1.70481 -0.032,0.006 -0.044,0.008 -0.0754,0.0134 18.58394,14.67084 18.58491,45.23548 18.58491,45.23548 z m -79.3719,21.4788 c -1.43688,0.49909 -2.88072,0.97976 -4.32997,1.4459 -0.32026,0.10301 -0.64277,0.1993 -0.96479,0.29714 v 24.72356 c 0,0 -1.7e-4,-13.23472 5.29476,-26.4666 z"
       inkscape:connector-curvature="0" />
  </g>
</svg>
